# xmcd
#
# Track frame offsets: 
#        150
#        12993
#        25395
#        37837
#        51739
#        65447
#        77204
#        90226
#        103559
#        115849
#        129937
#        144668
#        160464
#        171473
#        183528
#        195165
#        207474
#        220882
#        236992
#        249550
#
# Disc length: 3535 seconds
#
# Revision: 0
# Processed by: cddbd v1.5.2PL0 Copyright (c) Steve Scherf et al.
# Submitted via: ExactAudioCopyFreeDBPlugin 1.0
#
DISCID=200dcd14
DTITLE=Various Artist - The Bristol Sessions [CD4]
DYEAR=1928
DGENRE=
TTITLE0=Ernest Phipps and his Congregation - A Little Talk with Jesus
TTITLE1=Ernest Phipps and his Congregation - Went Up In the Clouds of 
TTITLE1=Heaven
TTITLE2=Ernest Phipps and his Congregation - I Know That Jesus Set Me 
TTITLE2=Free
TTITLE3=Ernest Phipps and his Congregation - Shine On Me
TTITLE4=Carolina Twins - Where Is My Mama
TTITLE5=Carolina Twins - When You Go A Courtin'
TTITLE6=Carolina Twins - I Sat Upon the River Bank
TTITLE7=Carolina Twins - Mr. Brown Here I Come
TTITLE8=Stoneman Family - Going Up the Mountain After Liquor Part 1
TTITLE9=Stoneman Family - Going Up the Mountain After Liquor Part 2
TTITLE10=Stoneman Family - The Spanish Merchant's Daughter
TTITLE11=Stoneman Family - Too Late
TTITLE12=Carolina Twins - New Orlenas Is The Town I Like The Best
TTITLE13=Carolina Twins - She Tells Me That I Am Sweet
TTITLE14=Clarence Greene - Goodnight Darling
TTITLE15=Clarence Greene - Little Bunch of Roses
TTITLE16=Smith Brothers - My Mother Is Waiting For Me In Heaven Above
TTITLE17=Smith Brothers - She Has Climbed the Golden Stairs
TTITLE18=Howard - Peak (The Blind Musicians) - I Cannot Be Your Sweeth
TTITLE18=eart
TTITLE19=Howard - Peak (The Blind Musicians) - The Black Sheep
EXTD=
EXTT0=
EXTT1=
EXTT2=
EXTT3=
EXTT4=
EXTT5=
EXTT6=
EXTT7=
EXTT8=
EXTT9=
EXTT10=
EXTT11=
EXTT12=
EXTT13=
EXTT14=
EXTT15=
EXTT16=
EXTT17=
EXTT18=
EXTT19=
PLAYORDER=
